<svg width="200" height="40" viewBox="0 0 200 40" fill="none" xmlns="http://www.w3.org/2000/svg">
<path d="M90.665 34.935H97.8475V20.075C97.8475 12.225 92.84 8.0575 86.815 8.0575C82.8275 8.0575 79.815 9.7875 77.645 12.1825H76.67C75.0325 10.0525 72.1975 8.0575 67.99 8.0575C64.1725 8.0575 61.1225 9.7425 59.5275 11.695H58.5525V8.8125H51.8625V34.935H59V21.275C59 16.615 60.375 15.02 65.1575 15.02C69.94 15.02 71.2675 16.615 71.2675 21.275V34.9325H78.4525V21.275C78.4525 16.615 79.78 15.02 84.565 15.02C89.3525 15.02 90.6775 16.615 90.6775 21.275L90.6675 34.9325L90.665 34.935ZM23.25 31.195C21.9675 30.265 21.39 28.89 21.39 26.8075C21.39 24.19 22.19 20.965 23.5175 19.5775C24.4475 18.645 25.775 18.2025 27.5925 18.2025C30.1625 18.2025 33.3075 18.8775 34.635 20.2425C35.5225 21.13 35.9225 22.37 35.9225 24.1C35.9225 26.585 35.2125 30.0875 33.66 31.55C32.775 32.35 31.58 32.7025 29.8975 32.7025C27.5975 32.7025 24.7075 32.1675 23.25 31.195ZM34.55 36.695L34.2375 39.09L40.9225 39.915L44.09 14.0325L37.4075 13.21L37.095 15.72H36.3225C35.3225 13.9475 32.6425 11.55 27.5925 11.55C20.55 11.55 15.3675 16.74 14.435 23.8325C14.3486 24.525 14.3043 25.2221 14.3025 25.92C14.3025 32.7025 18.91 38.2925 26.085 39.09C26.485 39.1275 26.8825 39.14 27.2825 39.135C30.295 39.135 32.555 37.85 33.7075 36.6975H34.5475L34.55 36.695ZM185.775 29.035C180.415 29.035 178.642 27.2625 178.642 21.8975C178.642 16.53 180.417 14.705 185.775 14.705C191.135 14.705 192.907 16.5225 192.907 21.8975C192.907 27.27 191.135 29.035 185.775 29.035ZM151.4 29.035C146.037 29.035 144.267 27.2625 144.267 21.8975C144.267 16.53 146.037 14.705 151.397 14.705C156.757 14.705 158.532 16.5225 158.532 21.8975C158.532 27.27 156.757 29.035 151.397 29.035H151.4ZM117.907 29.035C112.55 29.035 110.777 27.2625 110.777 21.8975C110.777 16.53 112.55 14.705 117.907 14.705C123.265 14.705 125.042 16.5225 125.042 21.8975C125.042 27.27 123.267 29.035 117.907 29.035ZM4.355 0L0 34.8825L7.11 35.75L11.395 0.865L4.355 0ZM193.217 32.4075V34.9325H199.905V8.815H193.217V11.345H192.242C191.177 9.925 188.477 8.0625 184.835 8.0625C176.86 8.0625 171.415 14.13 171.415 21.9C171.415 29.6675 176.862 35.6925 184.835 35.6925C188.47 35.6925 191.17 33.83 192.242 32.41H193.217V32.4075ZM117.907 8.06C109.047 8.06 103.557 14.1275 103.557 21.8975C103.557 29.665 109.047 35.69 117.907 35.69C126.767 35.69 132.275 29.6575 132.275 21.8975C132.275 14.135 126.78 8.06 117.907 8.06ZM158.93 32.4075V34.9325H165.617V0.3H158.532V11.3425H157.557C156.495 9.9225 154.1 8.06 150.47 8.06C142.495 8.06 137.045 14.1275 137.045 21.8975C137.045 29.665 142.495 35.69 150.47 35.69C154.1 35.69 156.935 33.8275 157.955 32.4075H158.93Z" fill="url(#paint0_linear_869_2)"/>
<defs>
<linearGradient id="paint0_linear_869_2" x1="-3.76808e-06" y1="-5.40363" x2="205.365" y2="40.058" gradientUnits="userSpaceOnUse">
<stop stop-color="#FF32FF"/>
<stop offset="0.55" stop-color="#FF0217"/>
<stop offset="1" stop-color="#F41C74"/>
</linearGradient>
</defs>
</svg>
