<svg width="178" height="42" viewBox="0 0 178 42" fill="none" xmlns="http://www.w3.org/2000/svg">
<path d="M26.1554 40.7913H33.4928V11.2407H26.1554V13.653C19.2201 8.82838 9.77195 10.5371 4.94736 17.4724C0.12277 24.4078 1.83148 33.8559 8.76682 38.6805C13.9935 42.299 20.9288 42.299 26.1554 38.6805V40.7913ZM9.3699 26.1165C9.3699 21.4929 13.1894 17.6735 17.8129 17.6735C22.4365 17.6735 26.256 21.4929 26.256 26.1165C26.256 30.7401 22.4365 34.5595 17.8129 34.5595C13.1894 34.5595 9.3699 30.8406 9.3699 26.1165ZM60.4301 1.18945V13.653C53.4948 8.82838 44.0466 10.6376 39.222 17.4724C34.3974 24.3073 36.2067 33.8559 43.0415 38.6805C48.2681 42.299 55.2035 42.299 60.4301 38.6805V40.7913H67.7675V1.18945L60.4301 1.18945ZM43.6446 26.1165C43.6446 21.4929 47.464 17.6735 52.0876 17.6735C56.7112 17.6735 60.5306 21.4929 60.5306 26.1165C60.5306 30.7401 56.7112 34.5595 52.0876 34.5595C47.464 34.5595 43.6446 30.8406 43.6446 26.1165ZM78.7234 1.18945H71.386V8.52685H78.7234V1.18945ZM78.7234 11.2407H71.386V40.7913H78.7234V11.2407ZM105.661 1.18945V13.653C98.7253 8.82838 89.2771 10.5371 84.4526 17.4724C79.628 24.4078 81.3367 33.8559 88.272 38.6805C93.4986 42.299 100.434 42.299 105.661 38.6805V40.7913H112.998V1.18945L105.661 1.18945ZM88.8751 26.1165C88.8751 21.4929 92.6945 17.6735 97.3181 17.6735C101.942 17.6735 105.761 21.4929 105.761 26.1165C105.761 30.7401 101.942 34.5595 97.3181 34.5595C92.6945 34.5595 88.8751 30.8406 88.8751 26.1165ZM140.036 40.7913H147.373V11.2407H140.036V13.653C133.1 8.82838 123.652 10.5371 118.828 17.4724C114.003 24.4078 115.712 33.8559 122.647 38.6805C127.874 42.299 134.809 42.299 140.036 38.6805V40.7913ZM123.25 26.1165C123.25 21.4929 127.07 17.6735 131.693 17.6735C136.317 17.6735 140.136 21.4929 140.136 26.1165C140.136 30.7401 136.317 34.5595 131.693 34.5595C126.969 34.5595 123.25 30.8406 123.25 26.1165ZM150.087 31.1421C150.288 37.0723 155.414 41.2938 163.857 41.2938C170.793 41.2938 176.522 38.2785 176.522 31.6447C176.522 27.0211 173.908 24.3073 167.878 23.2016L163.154 22.297C160.138 21.694 158.028 21.1914 158.028 19.3822C158.028 17.3719 160.038 16.5678 162.551 16.5678C166.27 16.5678 167.777 18.377 167.878 20.5883H175.316C174.914 14.7586 170.29 10.9391 162.852 10.9391C155.213 10.9391 150.59 15.1607 150.59 20.6888C150.59 27.4232 156.017 28.5288 160.741 29.3329L164.661 30.0365C167.476 30.539 168.682 31.3431 168.682 32.9513C168.682 34.3585 167.275 35.8662 163.958 35.8662C159.133 35.8662 157.625 33.3534 157.525 31.2426L150.087 31.1421Z" fill="#F1F8FF"/>
</svg>
