<svg width="105" height="21" viewBox="0 0 105 21" fill="none" xmlns="http://www.w3.org/2000/svg">
<path d="M62.7647 7.74894L63.5284 8.41751C63.3756 8.60265 63.1865 8.77408 62.9611 8.93179C62.452 9.27465 61.8956 9.44608 61.292 9.44608C60.5284 9.44608 59.8811 9.19922 59.3502 8.70551C58.8265 8.20494 58.5647 7.59465 58.5647 6.87465C58.5647 6.15465 58.8265 5.54779 59.3502 5.05408C59.8811 4.55351 60.5284 4.30322 61.292 4.30322C61.9102 4.30322 62.4593 4.46779 62.9393 4.79694C63.1574 4.94779 63.3356 5.10894 63.4738 5.28037L62.7102 5.94894C62.6084 5.81865 62.4884 5.70894 62.3502 5.61979C62.0084 5.39351 61.6556 5.28037 61.292 5.28037C60.8265 5.28037 60.4374 5.43122 60.1247 5.73294C59.812 6.02779 59.6556 6.40837 59.6556 6.87465C59.6556 7.34094 59.812 7.72494 60.1247 8.02665C60.4374 8.32151 60.8265 8.46894 61.292 8.46894C61.7065 8.46894 62.0665 8.34894 62.372 8.10894C62.5029 8.01294 62.6338 7.89294 62.7647 7.74894ZM63.7961 10.5775V8.36608H64.1779C64.3306 8.21522 64.4761 8.01294 64.6143 7.75922C64.9052 7.21065 65.0506 6.57294 65.0506 5.84608V4.40608H68.8688V8.36608H69.6324V10.5775H68.5415V9.34322H64.887V10.5775H63.7961ZM65.3234 8.36608H67.7779V5.38322H66.1415V5.84608C66.1415 6.57294 66.0034 7.21065 65.727 7.75922C65.6106 7.98551 65.4761 8.18779 65.3234 8.36608ZM74.5924 7.80036L75.247 8.52037C75.1088 8.69179 74.927 8.84608 74.7015 8.98322C74.207 9.29179 73.6434 9.44608 73.0106 9.44608C72.247 9.44608 71.5997 9.19922 71.0688 8.70551C70.5452 8.20494 70.2834 7.59465 70.2834 6.87465C70.2834 6.15465 70.5415 5.54779 71.0579 5.05408C71.5815 4.55351 72.2143 4.30322 72.9561 4.30322C73.6979 4.30322 74.3088 4.53294 74.7888 4.99237C75.2761 5.44494 75.5197 6.02094 75.5197 6.72037C75.5197 6.78208 75.5088 6.90551 75.487 7.09065L75.4652 7.23465H71.4288C71.4943 7.58437 71.6761 7.87922 71.9743 8.11922C72.2724 8.35236 72.6361 8.46894 73.0652 8.46894C73.4579 8.46894 73.8288 8.35922 74.1779 8.13979C74.3379 8.04379 74.4761 7.93065 74.5924 7.80036ZM71.4288 6.36037H74.3743C74.287 6.01065 74.1234 5.73637 73.8834 5.53751C73.6434 5.33179 73.3343 5.22894 72.9561 5.22894C72.1852 5.22894 71.6761 5.60608 71.4288 6.36037ZM75.897 9.34322V8.36608L76.0279 8.39694C76.1297 8.41065 76.2134 8.41751 76.2788 8.41751C76.5043 8.41751 76.6788 8.36265 76.8024 8.25294C76.9333 8.13636 77.0424 7.88265 77.1297 7.49179C77.217 7.10094 77.2606 6.55237 77.2606 5.84608V4.40608H81.297V9.34322H80.2061V5.38322H78.3515V5.84608C78.3515 6.54551 78.3079 7.13865 78.2206 7.62551C78.1334 8.10551 78.0061 8.47579 77.8388 8.73636C77.6715 8.99008 77.4824 9.17179 77.2715 9.28151C77.0679 9.39122 76.8279 9.44608 76.5515 9.44608C76.3843 9.44608 76.2279 9.42894 76.0824 9.39465C76.0315 9.38779 75.9697 9.37065 75.897 9.34322ZM85.8738 9.34322V8.62322C85.772 8.76722 85.6338 8.90436 85.4593 9.03465C85.0665 9.30894 84.6411 9.44608 84.1829 9.44608C83.6738 9.44608 83.2556 9.30551 82.9284 9.02437C82.6011 8.74322 82.4374 8.40379 82.4374 8.00608C82.4374 7.60151 82.572 7.26208 82.8411 6.98779C83.1174 6.71351 83.492 6.53865 83.9647 6.46322L85.8738 6.15465C85.8738 5.88722 85.772 5.66779 85.5684 5.49637C85.3647 5.31808 85.1029 5.22894 84.7829 5.22894C84.4629 5.22894 84.132 5.34208 83.7902 5.56837C83.6665 5.65065 83.5429 5.76037 83.4193 5.89751L82.7102 5.22894C82.8556 5.05065 83.0302 4.89637 83.2338 4.76608C83.692 4.45751 84.2084 4.30322 84.7829 4.30322C85.4302 4.30322 85.9538 4.48494 86.3538 4.84837C86.7611 5.20494 86.9647 5.65751 86.9647 6.20608V9.34322H85.8738ZM85.8738 7.13179V6.97751L84.3465 7.23465C83.8011 7.32379 83.5283 7.54665 83.5283 7.90322C83.5283 8.08836 83.6047 8.24608 83.7574 8.37636C83.9174 8.50665 84.132 8.57179 84.4011 8.57179C84.8156 8.57179 85.1647 8.43465 85.4483 8.16037C85.732 7.88608 85.8738 7.54322 85.8738 7.13179ZM87.6688 9.34322V8.36608L87.7997 8.39694C87.9015 8.41065 87.9852 8.41751 88.0506 8.41751C88.2761 8.41751 88.4506 8.36265 88.5743 8.25294C88.7052 8.13636 88.8143 7.88265 88.9015 7.49179C88.9888 7.10094 89.0324 6.55237 89.0324 5.84608V4.40608H93.0688V9.34322H91.9779V5.38322H90.1233V5.84608C90.1233 6.54551 90.0797 7.13865 89.9924 7.62551C89.9052 8.10551 89.7779 8.47579 89.6106 8.73636C89.4434 8.99008 89.2543 9.17179 89.0434 9.28151C88.8397 9.39122 88.5997 9.44608 88.3234 9.44608C88.1561 9.44608 87.9997 9.42894 87.8543 9.39465C87.8034 9.38779 87.7415 9.37065 87.6688 9.34322ZM94.5915 9.34322V4.40608H95.6824V7.69751L98.4097 4.40608H99.3915V9.34322H98.3006V6.05179L95.5733 9.34322H94.5915ZM58.292 18.7032L59.0556 18.0346C59.1865 18.1786 59.3174 18.2986 59.4484 18.3946C59.7538 18.6346 60.1138 18.7547 60.5284 18.7547C61.0956 18.7547 61.5284 18.5489 61.8265 18.1375C61.9647 17.9524 62.0593 17.7466 62.1102 17.5204H59.7102V16.6461H62.0556C61.9829 16.4404 61.8847 16.2621 61.7611 16.1112C61.4629 15.7478 61.052 15.5661 60.5284 15.5661C60.1647 15.5661 59.812 15.6792 59.4702 15.9055C59.332 15.9946 59.212 16.1044 59.1102 16.2346L58.3465 15.5661C58.4847 15.3947 58.6629 15.2335 58.8811 15.0826C59.3611 14.7535 59.9102 14.5889 60.5284 14.5889C61.292 14.5889 61.9356 14.8392 62.4593 15.3398C62.9902 15.8335 63.2556 16.4404 63.2556 17.1604C63.2556 17.8804 62.9902 18.4907 62.4593 18.9912C61.9356 19.4849 61.292 19.7318 60.5284 19.7318C59.9247 19.7318 59.3684 19.5604 58.8593 19.2175C58.6338 19.0598 58.4447 18.8884 58.292 18.7032ZM65.6011 19.6289V15.6689H63.8011V14.6918H68.492V15.6689H66.692V19.6289H65.6011ZM69.8224 18.9912C69.2988 18.4907 69.037 17.8804 69.037 17.1604C69.037 16.4404 69.2988 15.8335 69.8224 15.3398C70.3533 14.8392 71.0006 14.5889 71.7643 14.5889C72.5279 14.5889 73.1715 14.8392 73.6952 15.3398C74.2261 15.8335 74.4915 16.4404 74.4915 17.1604C74.4915 17.8804 74.2261 18.4907 73.6952 18.9912C73.1715 19.4849 72.5279 19.7318 71.7643 19.7318C71.0006 19.7318 70.3533 19.4849 69.8224 18.9912ZM70.597 18.3124C70.9097 18.6072 71.2988 18.7547 71.7643 18.7547C72.2297 18.7547 72.6188 18.6072 72.9315 18.3124C73.2443 18.0107 73.4006 17.6266 73.4006 17.1604C73.4006 16.6941 73.2443 16.3135 72.9315 16.0187C72.6188 15.7169 72.2297 15.5661 71.7643 15.5661C71.2988 15.5661 70.9097 15.7169 70.597 16.0187C70.2843 16.3135 70.1279 16.6941 70.1279 17.1604C70.1279 17.6266 70.2843 18.0107 70.597 18.3124ZM76.8402 19.6289V15.6689H75.0402V14.6918H79.7311V15.6689H77.9311V19.6289H76.8402ZM86.6602 18.0346L87.4238 18.7032C87.2711 18.8884 87.082 19.0598 86.8565 19.2175C86.3474 19.5604 85.7911 19.7318 85.1874 19.7318C84.4238 19.7318 83.7765 19.4849 83.2456 18.9912C82.722 18.4907 82.4602 17.8804 82.4602 17.1604C82.4602 16.4404 82.722 15.8335 83.2456 15.3398C83.7765 14.8392 84.4238 14.5889 85.1874 14.5889C85.8056 14.5889 86.3547 14.7535 86.8347 15.0826C87.0529 15.2335 87.2311 15.3947 87.3693 15.5661L86.6056 16.2346C86.5038 16.1044 86.3838 15.9946 86.2456 15.9055C85.9038 15.6792 85.5511 15.5661 85.1874 15.5661C84.722 15.5661 84.3329 15.7169 84.0202 16.0187C83.7074 16.3135 83.5511 16.6941 83.5511 17.1604C83.5511 17.6266 83.7074 18.0107 84.0202 18.3124C84.3329 18.6072 84.722 18.7547 85.1874 18.7547C85.602 18.7547 85.962 18.6346 86.2674 18.3946C86.3983 18.2986 86.5293 18.1786 86.6602 18.0346ZM91.5097 19.6289V18.9089C91.4079 19.0529 91.2697 19.1901 91.0952 19.3204C90.7024 19.5946 90.277 19.7318 89.8188 19.7318C89.3097 19.7318 88.8915 19.5912 88.5643 19.3101C88.237 19.0289 88.0734 18.6895 88.0734 18.2918C88.0734 17.8872 88.2079 17.5478 88.477 17.2735C88.7534 16.9992 89.1279 16.8244 89.6006 16.7489L91.5097 16.4404C91.5097 16.1729 91.4079 15.9535 91.2043 15.7821C91.0006 15.6038 90.7388 15.5147 90.4188 15.5147C90.0988 15.5147 89.7679 15.6278 89.4261 15.8541C89.3024 15.9364 89.1788 16.0461 89.0552 16.1832L88.3461 15.5147C88.4915 15.3364 88.6661 15.1821 88.8697 15.0518C89.3279 14.7432 89.8443 14.5889 90.4188 14.5889C91.0661 14.5889 91.5897 14.7707 91.9897 15.1341C92.397 15.4907 92.6006 15.9432 92.6006 16.4918V19.6289H91.5097ZM91.5097 17.4175V17.2632L89.9824 17.5204C89.437 17.6095 89.1643 17.8324 89.1643 18.1889C89.1643 18.3741 89.2406 18.5318 89.3933 18.6621C89.5533 18.7924 89.7679 18.8575 90.037 18.8575C90.4515 18.8575 90.8006 18.7204 91.0843 18.4461C91.3679 18.1718 91.5097 17.8289 91.5097 17.4175ZM94.1229 19.6289V14.6918H95.2138V17.9832L97.9411 14.6918H98.9229V19.6289H97.832V16.3375L95.1047 19.6289H94.1229ZM94.9411 12.4289H95.7593C95.7593 12.6347 95.832 12.8061 95.9774 12.9432C96.1229 13.0804 96.3047 13.1489 96.5229 13.1489C96.7411 13.1489 96.9229 13.0804 97.0684 12.9432C97.2138 12.8061 97.2865 12.6347 97.2865 12.4289H98.1047C98.1047 12.8404 97.9556 13.1832 97.6574 13.4575C97.3593 13.7318 96.9811 13.8689 96.5229 13.8689C96.0647 13.8689 95.6865 13.7318 95.3884 13.4575C95.0902 13.1832 94.9411 12.8404 94.9411 12.4289ZM101.706 19.6289V15.6689H99.9056V14.6918H104.597V15.6689H102.797V19.6289H101.706Z" fill="white"/>
<path d="M10.5113 3.01074H13.7489V19.6316H10.5113V18.2284C9.53946 19.3809 8.17723 19.9624 6.42191 19.9624C4.7485 19.9624 3.31531 19.3577 2.12235 18.1457C0.923928 16.9338 0.331543 15.4531 0.331543 13.6934C0.331543 11.9336 0.929387 10.4529 2.12235 9.24097C3.32076 8.02906 4.75123 7.42434 6.42191 7.42434C8.17723 7.42434 9.53946 8.0006 10.5113 9.1583V3.01074ZM4.54376 16.1017C5.19346 16.7271 6.02609 17.0398 7.02796 17.0398C8.02982 17.0398 8.85968 16.7271 9.52032 16.1017C10.181 15.4764 10.5113 14.6753 10.5113 13.6934C10.5113 12.7114 10.181 11.9103 9.52032 11.285C8.85968 10.6596 8.02709 10.347 7.02796 10.347C6.02882 10.347 5.19618 10.6596 4.54376 11.285C3.89131 11.9103 3.56373 12.7114 3.56373 13.6934C3.56646 14.6753 3.89404 15.4764 4.54376 16.1017Z" fill="white"/>
<path d="M21.7229 7.42188C23.1943 7.42188 24.4118 7.82756 25.3837 8.64416C26.3555 9.46072 26.8387 10.6029 26.8387 12.0758V19.6265H23.6802V18.6058C22.8968 19.5102 21.7557 19.9599 20.2678 19.9599C19.0803 19.9599 18.0839 19.6317 17.2732 18.9727C16.4624 18.3189 16.0557 17.3939 16.0557 16.2078C16.0557 15.0216 16.4597 14.1017 17.2732 13.4557C18.0839 12.8045 19.0803 12.4841 20.2678 12.4841C21.6874 12.4841 22.823 12.8304 23.6802 13.5306V12.2696C23.6802 10.9414 23.0305 10.2747 21.7229 10.2747C21.1387 10.2747 20.6692 10.4117 20.3197 10.6907C19.9676 10.9698 19.7928 11.3367 19.7928 11.7942H16.6344C16.6344 10.4504 17.1258 9.38576 18.1003 8.6028C19.0749 7.81466 20.2843 7.42188 21.7229 7.42188ZM21.3735 17.6807C22.075 17.6807 22.6374 17.5437 23.0551 17.2647C23.4728 16.9856 23.6802 16.6341 23.6802 16.2103C23.6802 15.7504 23.4728 15.3886 23.066 15.1302C22.6593 14.8718 22.0914 14.74 21.3735 14.74C20.6855 14.74 20.1696 14.877 19.8202 15.1457C19.468 15.4144 19.2933 15.771 19.2933 16.2155C19.2933 16.66 19.468 17.0166 19.8202 17.2853C20.1641 17.5437 20.6855 17.6807 21.3735 17.6807Z" fill="white"/>
<path d="M32.3287 11.1996C32.3287 11.5665 32.5552 11.8507 33.0193 12.0549C33.4779 12.259 34.0403 12.4218 34.7118 12.5433C35.3779 12.6595 36.044 12.8275 36.7047 13.0317C37.3653 13.2358 37.9222 13.6027 38.3862 14.1222C38.8449 14.6441 39.0769 15.3341 39.0769 16.1894C39.0769 17.391 38.5965 18.3213 37.6355 18.9802C36.6746 19.634 35.468 19.9674 34.0102 19.9674C32.5388 19.9674 31.3268 19.6159 30.3768 18.913C29.4213 18.2102 28.9463 17.1921 28.9463 15.8638H32.1048C32.1048 16.7967 32.7408 17.267 34.0102 17.267C35.2278 17.267 35.842 16.9104 35.842 16.1972C35.842 15.8793 35.6755 15.6261 35.3424 15.4245C35.0066 15.2281 34.589 15.0886 34.0867 15.0085C33.5871 14.931 33.0439 14.8069 32.4706 14.6415C31.8918 14.4762 31.3568 14.2849 30.8545 14.0705C30.3549 13.856 29.9345 13.5045 29.5987 13.0161C29.263 12.5277 29.0992 11.9257 29.0992 11.2125C29.0992 10.0238 29.5742 9.10127 30.5132 8.43715C31.4578 7.77304 32.6235 7.4397 34.013 7.4397C35.3643 7.4397 36.5054 7.79631 37.4362 8.5095C38.3644 9.22273 38.8312 10.2357 38.8312 11.5484H35.6727C35.6727 11.1039 35.5172 10.7628 35.2087 10.5174C34.9002 10.2719 34.5016 10.1504 34.0157 10.1504C32.891 10.1297 32.3287 10.4863 32.3287 11.1996Z" fill="white"/>
<path d="M48.1556 7.42168C49.3434 7.42168 50.3125 7.83255 51.077 8.65686C51.8356 9.47861 52.2179 10.6027 52.2179 12.0291V19.6289H48.9802V12.2643C48.9802 11.6131 48.7947 11.1195 48.4288 10.7784C48.0629 10.4373 47.5825 10.2694 46.9984 10.2694C46.3106 10.2694 45.7643 10.4709 45.3577 10.874C44.951 11.2797 44.7435 11.8999 44.7435 12.7372V19.6237H41.5059V3.00806H44.7435V8.96436C45.4615 7.94106 46.6025 7.42168 48.1556 7.42168Z" fill="white"/>
<path d="M16.356 5.94069V3H38.8693V5.94069H16.356Z" fill="white"/>
</svg>
