<svg width="141" height="57" viewBox="0 0 141 57" fill="none" xmlns="http://www.w3.org/2000/svg">
<g clip-path="url(#clip0_928_2)">
<path d="M59.6484 22.5684C59.2433 22.2752 58.7868 22.1283 58.2795 22.1283C57.8177 22.1283 57.4078 22.2818 57.0486 22.5881C56.6892 22.8944 56.434 23.2748 56.2825 23.7297L54.1964 30.3929L51.9226 23.4431C51.7908 23.0079 51.5405 22.6802 51.1713 22.4595C50.8023 22.2388 50.3805 22.1283 49.906 22.1283C49.3855 22.1283 48.9241 22.2998 48.522 22.6422C48.2186 22.9128 48.0179 23.3279 47.9189 23.8881L46.2581 34.0605C46.2581 34.6538 46.3653 35.125 46.5795 35.4743C46.7936 35.8236 47.1114 35.9984 47.5335 35.9984C48.0209 35.9984 48.4216 35.8711 48.7345 35.6176C49.0474 35.3638 49.2468 35.0063 49.3327 34.5449L50.3904 27.8423L52.5356 34.5449C52.6871 35.0329 52.8967 35.4002 53.1636 35.6475C53.4302 35.8941 53.8012 36.0181 54.2754 36.0181C54.6712 36.0181 54.9825 35.9403 55.2098 35.7855C55.4374 35.6311 55.6069 35.433 55.7191 35.1926C55.8309 34.9519 55.9496 34.6141 56.0746 34.1792L57.983 27.8423L59.0308 34.1992C59.1099 34.7659 59.2447 35.1841 59.4362 35.4546C59.6995 35.817 60.1941 35.9984 60.9189 35.9984C61.7559 35.9984 62.1743 35.3356 62.1743 34.0109L60.3653 23.7297C60.2928 23.2486 60.0537 22.8616 59.6484 22.5684Z" fill="white"/>
<path d="M70.6627 28.1486C70.3003 28.5114 69.7864 28.6927 69.1206 28.6927H67.5487V25.0248H69.2889C69.8225 25.0248 70.2626 25.1813 70.6086 25.4945C70.9546 25.8077 71.1406 26.2311 71.1671 26.765C71.1671 27.3448 70.9989 27.8063 70.6627 28.1486V28.1486ZM73.678 24.3922C73.4606 24.0298 73.2103 23.7133 72.9266 23.4431C72.1556 22.6917 71.0091 22.3162 69.4867 22.3162H66.333C65.7397 22.3162 65.2766 22.4825 64.9437 22.8153C64.6112 23.1482 64.4446 23.608 64.4446 24.1944V34.2976C64.4446 34.7859 64.5863 35.1942 64.8696 35.5238C65.153 35.8531 65.5321 36.0181 66.0067 36.0181C66.4874 36.0181 66.8649 35.8531 67.1384 35.5238C67.412 35.1942 67.5487 34.7859 67.5487 34.2976V31.3814H69.8917C71.3878 31.3814 72.5278 30.9038 73.3123 29.9482C74.0043 29.1243 74.3503 28.0565 74.3503 26.745C74.3503 26.3429 74.2926 25.9408 74.1775 25.5387C74.062 25.137 73.8954 24.7546 73.678 24.3922" fill="white"/>
<path d="M82.9773 33.0422H79.7829V23.8284C79.7829 23.3476 79.6485 22.9406 79.373 22.6078C79.1008 22.2752 78.7236 22.1086 78.2415 22.1086C77.7529 22.1086 77.3724 22.2752 77.0937 22.6078C76.8182 22.9406 76.6804 23.3476 76.6804 23.8284V33.8726C76.6804 34.4859 76.8542 34.9637 77.1986 35.3064C77.5462 35.6488 78.0218 35.8203 78.6285 35.8203H82.9773C83.42 35.8203 83.7873 35.695 84.0792 35.4445C84.3711 35.1942 84.5187 34.8581 84.5187 34.4363C84.5187 33.9946 84.3744 33.6522 84.0858 33.4082C83.7939 33.1645 83.4266 33.0422 82.9773 33.0422Z" fill="white"/>
<path d="M88.5723 29.6415C88.979 28.4025 89.6414 27.783 90.5564 27.783C91.5928 27.783 92.2684 28.4025 92.5832 29.6415H88.5723ZM95.2036 31.342C95.4004 31.1246 95.5021 30.7822 95.5021 30.3138C95.5021 29.4306 95.2856 28.6068 94.8593 27.8423C94.4296 27.0779 93.8393 26.4718 93.085 26.0235C92.3274 25.5751 91.501 25.3511 90.5991 25.3511C89.6545 25.3511 88.7887 25.5882 88.0016 26.0628C87.2145 26.5374 86.5979 27.1802 86.1486 27.9906C85.6993 28.8013 85.4763 29.6812 85.4763 30.6303C85.4763 32.054 85.8469 33.217 86.5848 34.1198C87.103 34.7397 87.7294 35.211 88.4608 35.5337C89.1921 35.8564 89.9727 36.0181 90.7958 36.0181C92.0552 36.0181 93.167 35.7413 94.1377 35.1877C94.9347 34.7328 95.3315 34.2284 95.3315 33.6751C95.3315 33.4708 95.2725 33.273 95.1544 33.0818C95.0364 32.8906 94.8757 32.7391 94.6756 32.6273C94.4756 32.5151 94.2689 32.459 94.0558 32.459C93.8196 32.4787 93.6327 32.525 93.495 32.5978L92.6423 33.0225C92.1044 33.2927 91.5436 33.4278 90.9631 33.4278C90.4416 33.4278 89.9759 33.273 89.5594 32.9631C89.1757 32.6932 88.8806 32.2613 88.6707 31.6683H94.2263C94.6789 31.6683 95.0068 31.5594 95.2036 31.342" fill="white"/>
<path d="M104.118 31.9796C103.947 32.3587 103.698 32.6653 103.37 32.8992C103.045 33.1333 102.661 33.2497 102.219 33.2497C101.566 33.2497 101.077 32.9877 100.753 32.464C100.425 31.9399 100.261 31.3289 100.261 30.6303C100.261 29.9908 100.435 29.4142 100.782 28.9C101.127 28.3861 101.605 28.129 102.219 28.129C102.95 28.129 103.494 28.3779 103.845 28.8754C104.2 29.3733 104.373 30.0072 104.373 30.7786C104.373 31.2003 104.288 31.6008 104.118 31.9796V31.9796ZM105.908 25.4302C105.256 25.4302 104.777 25.7959 104.475 26.5275C104.065 26.1123 103.668 25.8126 103.288 25.6279C102.904 25.4433 102.445 25.3511 101.904 25.3511C100.769 25.3511 99.7491 25.8024 98.8374 26.7053C97.8043 27.7272 97.2861 29.0518 97.2861 30.6795C97.2861 32.439 97.8732 33.8434 99.0473 34.8909C99.9098 35.6422 100.881 36.0181 101.963 36.0181C102.511 36.0181 102.97 35.921 103.347 35.7265C103.721 35.532 104.091 35.2172 104.455 34.7823C104.731 35.5665 105.21 35.9587 105.889 35.9587C106.354 35.9587 106.728 35.7875 107.01 35.4445C107.289 35.1017 107.43 34.6869 107.43 34.1992V26.9526C107.43 26.5243 107.282 26.1635 106.991 25.8703C106.695 25.5771 106.335 25.4302 105.908 25.4302" fill="white"/>
<path d="M116.564 31.7523C116.41 32.1511 116.18 32.4758 115.878 32.7257C115.577 32.9766 115.216 33.1018 114.799 33.1018C114.17 33.1018 113.665 32.8431 113.294 32.3259C112.92 31.8084 112.733 31.2167 112.733 30.551C112.733 30.1226 112.815 29.7107 112.973 29.3152C113.13 28.92 113.366 28.5986 113.678 28.3513C113.993 28.1044 114.366 27.9807 114.799 27.9807C115.216 27.9807 115.577 28.1077 115.878 28.3615C116.18 28.6153 116.41 28.9397 116.564 29.3349C116.721 29.7307 116.797 30.1292 116.797 30.5313C116.797 30.9468 116.721 31.3535 116.564 31.7523V31.7523ZM118.279 20.9814C117.813 20.9814 117.446 21.1382 117.177 21.451C116.911 21.7642 116.777 22.1516 116.777 22.6127V26.3003C116.006 25.6673 115.232 25.3511 114.455 25.3511C113.373 25.3511 112.415 25.7168 111.579 26.4485C111.038 26.9165 110.598 27.516 110.264 28.2477C109.926 28.9794 109.759 29.7009 109.759 30.4129C109.759 31.83 110.129 33.0789 110.867 34.1595C111.267 34.7262 111.762 35.1778 112.343 35.5137C112.927 35.8498 113.55 36.0181 114.209 36.0181C114.78 36.0181 115.281 35.9223 115.704 35.7311C116.131 35.5402 116.505 35.2241 116.826 34.7823C116.974 35.1778 117.157 35.4727 117.38 35.6668C117.603 35.8613 117.912 35.9587 118.299 35.9587C118.768 35.9587 119.128 35.7957 119.378 35.4694C119.627 35.1427 119.755 34.7397 119.755 34.2582V22.6127C119.755 22.1447 119.62 21.756 119.358 21.4461C119.096 21.1365 118.735 20.9814 118.279 20.9814" fill="white"/>
<path d="M125.186 29.6415C125.596 28.4025 126.258 27.783 127.173 27.783C128.21 27.783 128.885 28.4025 129.2 29.6415H125.186ZM131.821 31.342C132.017 31.1246 132.116 30.7822 132.116 30.3138C132.116 29.4306 131.903 28.6068 131.473 27.8423C131.047 27.0779 130.453 26.4718 129.699 26.0235C128.944 25.5751 128.118 25.3511 127.213 25.3511C126.271 25.3511 125.406 25.5882 124.619 26.0628C123.831 26.5374 123.215 27.1802 122.766 27.9906C122.316 28.8013 122.093 29.6812 122.093 30.6303C122.093 32.054 122.461 33.217 123.202 34.1198C123.72 34.7397 124.346 35.211 125.078 35.5337C125.809 35.8564 126.586 36.0181 127.413 36.0181C128.669 36.0181 129.784 35.7413 130.751 35.1877C131.552 34.7328 131.948 34.2284 131.948 33.6751C131.948 33.4708 131.889 33.273 131.771 33.0818C131.653 32.8906 131.493 32.7391 131.293 32.6273C131.089 32.5151 130.886 32.459 130.673 32.459C130.437 32.4787 130.25 32.525 130.112 32.5978L129.259 33.0225C128.721 33.2927 128.161 33.4278 127.58 33.4278C127.059 33.4278 126.59 33.273 126.176 32.9631C125.793 32.6932 125.498 32.2613 125.288 31.6683H130.843C131.296 31.6683 131.624 31.5594 131.821 31.342" fill="white"/>
<path d="M140.541 25.7814C140.236 25.5082 139.869 25.3711 139.439 25.3711C138.813 25.3711 138.144 25.7437 137.432 26.4881C137.101 25.783 136.589 25.4305 135.89 25.4305C135.474 25.4305 135.12 25.5984 134.821 25.9345C134.579 26.1982 134.457 26.597 134.457 27.1309V34.2979C134.457 34.7662 134.588 35.1597 134.857 35.4795C135.123 35.7993 135.484 35.959 135.94 35.959C136.409 35.959 136.773 35.8006 137.035 35.4844C137.301 35.1683 137.432 34.7728 137.432 34.2979V30.2351C137.432 29.6684 137.586 29.263 137.898 29.019C138.226 28.7619 138.754 28.5117 139.478 28.2676C139.993 28.103 140.374 27.9266 140.626 27.7387C140.875 27.5511 141 27.2395 141 26.8046C141 26.396 140.846 26.0549 140.541 25.7814" fill="white"/>
<path d="M19.2 20.526C18.3428 20.526 17.6482 21.2209 17.6482 22.0782V48.8887L12.1384 52.0817V18.0954L16.1044 15.7968L13.0088 14.0028L9.80791 15.8581C9.32876 16.1359 9.03394 16.6475 9.03394 17.2011V54.7752C9.03394 55.3301 9.33007 55.8431 9.81119 56.1199C10.0509 56.2583 10.3186 56.3271 10.5862 56.3271C10.8548 56.3271 11.1237 56.2576 11.3644 56.1182L19.9783 51.126C20.4575 50.8482 20.7523 50.3366 20.7523 49.783V22.0782C20.7523 21.2209 20.0573 20.526 19.2 20.526Z" fill="white"/>
<path d="M37.2034 0.879867C36.7223 0.602741 36.1304 0.603382 35.6502 0.881821L19.2 10.415L2.75017 0.881821C2.27003 0.60371 1.67807 0.602741 1.19695 0.879867C0.716161 1.15699 0.419678 1.66992 0.419678 2.22483V39.8282C0.419678 40.3818 0.714846 40.8934 1.19367 41.1708L4.41785 43.0399C4.66317 43.1816 4.93078 43.2491 5.19479 43.2491C5.73035 43.2491 6.25147 42.9717 6.53909 42.4751C6.96905 41.7333 6.71619 40.7838 5.97467 40.3535L3.52416 38.9335V4.91836L26.2623 18.0955V33.9452L23.8567 35.339V38.9272L28.5925 36.1825C29.0717 35.9051 29.3665 35.3931 29.3665 34.8399V17.2012C29.3665 16.6476 29.0717 16.1356 28.5925 15.8582L22.2957 12.2089L34.8762 4.91836V38.9043L27.036 43.4482C26.2945 43.8778 26.0416 44.8276 26.4712 45.5691C26.7592 46.066 27.2803 46.3438 27.8159 46.3438C28.0799 46.3438 28.3478 46.2762 28.5925 46.1342L37.2067 41.1416C37.6855 40.8642 37.9807 40.3526 37.9807 39.799V2.22483C37.9807 1.66992 37.6842 1.15699 37.2034 0.879867" fill="white"/>
</g>
<defs>
<clipPath id="clip0_928_2">
<rect width="140.58" height="55.6547" fill="white" transform="matrix(1 0 0 -1 0.419678 56.3271)"/>
</clipPath>
</defs>
</svg>
